<svg xmlns="http://www.w3.org/2000/svg" width="180" height="120" viewBox="0 0 180 120" fill="none">
  <path opacity="0.5" fill-rule="evenodd" clip-rule="evenodd"
    d="M45.4626 51.4023L56.7293 93.4501L134.537 72.6016L123.27 30.5538L45.4626 51.4023ZM35.6474 37.5011C30.2674 38.9427 27.0746 44.4727 28.5162 49.8527L42.8281 103.265C44.2697 108.645 49.7996 111.838 55.1796 110.397L144.352 86.5028C149.732 85.0612 152.925 79.5312 151.484 74.1512L137.172 20.7386C135.73 15.3585 130.2 12.1658 124.82 13.6074L35.6474 37.5011Z"
    fill="#DDE4F0" />
  <path fill-rule="evenodd" clip-rule="evenodd"
    d="M43.209 24.0059C37.5707 24.0059 33 28.6024 33 34.2725V90.7392C33 96.4093 37.5707 101.006 43.209 101.006H136.791C142.429 101.006 147 96.4093 147 90.7392V34.2725C147 28.6024 142.429 24.0059 136.791 24.0059H43.209ZM66.6045 55.6614C63.0806 55.6614 60.2239 58.5343 60.2239 62.0781C60.2239 65.6219 63.0806 68.4947 66.6045 68.4947C70.1284 68.4947 72.9851 65.6219 72.9851 62.0781C72.9851 58.5343 70.1284 55.6614 66.6045 55.6614ZM83.194 62.0781C83.194 58.5343 86.0507 55.6614 89.5746 55.6614C93.0985 55.6614 95.9552 58.5343 95.9552 62.0781C95.9552 65.6219 93.0985 68.4947 89.5746 68.4947C86.0507 68.4947 83.194 65.6219 83.194 62.0781ZM112.545 55.6614C109.021 55.6614 106.164 58.5343 106.164 62.0781C106.164 65.6219 109.021 68.4947 112.545 68.4947C116.069 68.4947 118.925 65.6219 118.925 62.0781C118.925 58.5343 116.069 55.6614 112.545 55.6614Z"
    fill="#DDE4F0" />
</svg>