<svg xmlns="http://www.w3.org/2000/svg" width="180" height="120" viewBox="0 0 180 120" fill="none">
  <path opacity="0.5" fill-rule="evenodd" clip-rule="evenodd"
    d="M45.5566 49.4053L56.8233 91.4531L134.631 70.6045L123.364 28.5567L45.5566 49.4053ZM35.7414 35.5041C30.3614 36.9456 27.1686 42.4756 28.6102 47.8556L42.9221 101.268C44.3636 106.648 49.8936 109.841 55.2736 108.399L144.446 84.5057C149.826 83.0642 153.019 77.5342 151.578 72.1542L137.266 18.7415C135.824 13.3615 130.294 10.1687 124.914 11.6103L35.7414 35.5041Z"
    fill="#253041" />
  <path fill-rule="evenodd" clip-rule="evenodd"
    d="M43.3027 22.0088C37.6645 22.0088 33.0938 26.6053 33.0938 32.2755V88.7421C33.0938 94.4122 37.6645 99.0088 43.3027 99.0088H136.885C142.523 99.0088 147.094 94.4122 147.094 88.7421V32.2755C147.094 26.6053 142.523 22.0088 136.885 22.0088H43.3027ZM66.6982 53.6643C63.1743 53.6643 60.3176 56.5372 60.3176 60.081C60.3176 63.6248 63.1743 66.4977 66.6982 66.4977C70.2221 66.4977 73.0788 63.6248 73.0788 60.081C73.0788 56.5372 70.2221 53.6643 66.6982 53.6643ZM83.2878 60.081C83.2878 56.5372 86.1445 53.6643 89.6684 53.6643C93.1923 53.6643 96.049 56.5372 96.049 60.081C96.049 63.6248 93.1923 66.4977 89.6684 66.4977C86.1445 66.4977 83.2878 63.6248 83.2878 60.081ZM112.639 53.6643C109.115 53.6643 106.258 56.5372 106.258 60.081C106.258 63.6248 109.115 66.4977 112.639 66.4977C116.162 66.4977 119.019 63.6248 119.019 60.081C119.019 56.5372 116.162 53.6643 112.639 53.6643Z"
    fill="#253041" />
</svg>